:SAMPLES-PER-SECOND 24
:FULLY-SPECIFIED
:DEGREES
225
root  5.99976 40.4442 17.4586 3.9967 49.6347 -8.36554
RightUpLeg  -17.6494 -2.53536 -8.2466
RightLeg  13.9652 -4.37729 -1.84953
RightFoot  7.04967 -1.60861 10.2359
RightToes  -2.08645e-008 3.77894e-005 6.81332e-007
Spine  -0.635243 -3.60398 -1.29388
Spine1  3.90597 -4.86398 5.5027
HEad  -31.5927 -17.6801 9.6426
LeftShoulder1  6.9947 -13.013 -36.2961
LeftArm  9.16036 31.9189 -26.9285
LeftForeArm  163.701 -68.9392 -153.981
LeftHand  -0.233112 -3.10272 3.42407
RightShoulder  4.06213 6.7426 33.7581
RightArm  13.7367 -31.0164 33.672
RightForeArm  146.209 76.6791 134.759
RightHand  0.373953 10.1304 2.37245
LeftUpLeg  -6.29799 2.10562 7.26388
LeftLeg  9.72635 7.13854 2.94666
LeftFoot  -8.19002 0.353048 -11.0334
LeftToes  1.24767e-006 1.47042e-008 1.32732e-009
226
root  5.7453 40.1031 17.2701 4.05139 50.0381 -7.69531
RightUpLeg  -15.263 -3.16428 -8.29795
RightLeg  14.6462 -5.64062 -2.06149
RightFoot  4.01833 -1.66733 12.5588
RightToes  -2.08645e-008 3.77894e-005 6.81332e-007
Spine  -0.807423 -3.27292 -1.38311
Spine1  4.13414 -4.35711 4.469
HEad  -31.2937 -18.629 9.71515
LeftShoulder1  6.7527 -12.7918 -35.4095
LeftArm  11.5028 28.115 -24.6268
LeftForeArm  161.866 -69.7518 -152.666
LeftHand  -0.174256 -3.3329 2.56652
RightShoulder  3.93821 6.66866 32.8293
RightArm  14.3862 -29.9765 32.7471
RightForeArm  143.818 76.7182 134.106
RightHand  0.0135878 9.01844 -0.294861
LeftUpLeg  -6.47173 1.84264 6.63554
LeftLeg  10.314 7.32737 3.16427
LeftFoot  -10.6964 0.120777 -9.90046
LeftToes  1.24767e-006 1.47042e-008 1.32732e-009
227
root  5.43909 39.64 17.0106 4.36975 50.854 -5.80542
RightUpLeg  -12.8226 -5.00427 -9.15956
RightLeg  13.2899 -6.1037 -2.16797
RightFoot  0.192154 -1.17227 11.5841
RightToes  -2.08645e-008 3.77894e-005 6.81332e-007
Spine  -0.322501 -2.78705 -2.62047
Spine1  5.26651 -3.8582 4.32116
HEad  -32.3826 -20.0315 10.419
LeftShoulder1  6.88295 -12.8794 -35.9701
LeftArm  12.836 21.4129 -22.0896
LeftForeArm  158.185 -71.9312 -148.719
LeftHand  -0.211923 -3.51114 3.0178
RightShoulder  3.77544 6.48841 31.8962
RightArm  14.0843 -27.0078 32.1268
RightForeArm  135.809 78.0598 126.482
RightHand  -0.181184 8.74421 -1.87282
LeftUpLeg  -7.33556 -1.86927 5.06079
LeftLeg  13.5367 10.2144 4.36076
LeftFoot  -13.6879 -0.101137 -8.91838
LeftToes  1.24767e-006 1.47042e-008 1.32732e-009
228
root  5.15726 39.2858 16.7045 4.69031 50.386 -4.2464
RightUpLeg  -12.8594 -4.28099 -9.98743
RightLeg  13.6117 -7.45917 -2.78078
RightFoot  -2.16836 -0.771153 9.4386
RightToes  -2.08645e-008 3.77894e-005 6.81332e-007
Spine  -0.212599 -1.90241 -2.42613
Spine1  7.11346 -2.6087 2.69772
HEad  -34.34 -21.2185 11.5637
LeftShoulder1  7.20321 -13.1593 -37.1527
LeftArm  11.5384 15.9393 -21.2971
LeftForeArm  155.261 -75.1365 -141.334
LeftHand  -0.283514 -3.33675 4.02239
RightShoulder  3.71662 6.3804 31.7134
RightArm  11.7144 -23.6977 32.2669
RightForeArm  113.615 80.2539 101.559
RightHand  -0.259478 9.20048 -2.45432
LeftUpLeg  -8.92544 -5.3695 4.06152
LeftLeg  18.0534 13.7499 5.49487
LeftFoot  -15.6334 -0.219699 -8.33589
LeftToes  1.24767e-006 1.47042e-008 1.32732e-009
229
root  4.96123 39.1454 16.4387 4.49402 47.8302 -3.92975
RightUpLeg  -14.7524 -0.0358869 -10.4666
RightLeg  15.9369 -9.37917 -3.47286
RightFoot  -1.98317 -0.754211 9.03091
RightToes  -2.08645e-008 3.77894e-005 6.81332e-007
Spine  0.52274 -0.932434 -0.879195
Spine1  7.31809 -0.955499 -0.155644
HEad  -35.5368 -20.7789 12.2535
LeftShoulder1  7.33739 -13.2611 -37.6718
LeftArm  7.40356 17.2562 -23.413
LeftForeArm  156.89 -76.3665 -138.179
LeftHand  -0.313722 -2.79561 4.67663
RightShoulder  3.75528 6.43004 31.9159
RightArm  9.90069 -22.4393 32.3601
RightForeArm  91.7915 80.3586 77.7771
RightHand  -0.299816 8.744 -2.84979
LeftUpLeg  -9.61578 -3.74026 3.68432
LeftLeg  20.4464 14.3182 6.12513
LeftFoot  -16.4581 -0.270777 -8.24788
LeftToes  1.24767e-006 1.47042e-008 1.32732e-009
230
root  4.87324 39.2352 16.2861 4.18188 45.631 -4.03326
RightUpLeg  -16.1805 2.46648 -10.7824
RightLeg  17.3293 -9.25206 -3.43361
RightFoot  -0.590651 -0.902396 9.52674
RightToes  -2.08645e-008 3.77894e-005 6.81332e-007
Spine  1.70941 -0.813856 -1.07495
Spine1  6.04097 -0.744322 -0.570995
HEad  -35.4385 -18.7118 12.1252
LeftShoulder1  7.32677 -13.1838 -37.8063
LeftArm  1.90018 24.2898 -27.3563
LeftForeArm  161.815 -74.3566 -144.389
LeftHand  -0.281685 -2.35591 4.42516
RightShoulder  3.77464 6.47806 31.9278
RightArm  10.3252 -23.7537 31.6449
RightForeArm  96.3664 80.4155 84.3255
RightHand  -0.326085 7.85033 -3.2251
LeftUpLeg  -8.72284 -2.00021 3.51916
LeftLeg  19.3622 14.7819 6.14969
LeftFoot  -16.0465 -0.248488 -8.37419
LeftToes  1.24767e-006 1.47042e-008 1.32732e-009
